<svg width="30" height="19" viewBox="0 0 30 19" fill="none" xmlns="http://www.w3.org/2000/svg">
<path d="M11.626 4.83066L11.63 3.12887L1.87588 8.51801L11.6139 13.9361L11.618 12.2343" stroke="#FF5252" stroke-width="1.8"/>
<path d="M17.0796 3.37273L16.6444 2.58496L17.9819 1.84599L17.9796 3.37406L17.0796 3.37273ZM8.10269 8.33248L7.66511 9.11894L6.24662 8.32972L7.66745 7.54471L8.10269 8.33248ZM17.0763 5.62107L16.7785 6.47038L16.1753 6.25891L16.1763 5.61973L17.0763 5.62107ZM27.1426 15.5631L27.9846 15.2454L29.0922 18.1815L26.5969 16.2787L27.1426 15.5631ZM17.0677 11.4322L16.1677 11.4308L16.1687 10.6998L16.8844 10.551L17.0677 11.4322ZM17.0648 13.3188L17.9648 13.3202L17.9626 14.8482L16.6273 14.1053L17.0648 13.3188ZM17.5149 4.16049L8.53792 9.12024L7.66745 7.54471L16.6444 2.58496L17.5149 4.16049ZM16.1763 5.61973L16.1796 3.37139L17.9796 3.37406L17.9763 5.6224L16.1763 5.61973ZM26.3005 15.8807C25.1435 12.8137 24.4173 11.1184 23.203 9.85093C21.9996 8.59475 20.2369 7.68284 16.7785 6.47038L17.374 4.77175C20.8545 5.99197 22.9802 7.01639 24.5028 8.60571C26.0145 10.1837 26.8521 12.2431 27.9846 15.2454L26.3005 15.8807ZM16.8844 10.551C18.63 10.188 20.021 10.2041 21.6838 10.9049C23.2615 11.5698 25.0625 12.8452 27.6883 14.8474L26.5969 16.2787C23.9367 14.2503 22.3155 13.1244 20.9848 12.5636C19.7392 12.0386 18.7358 12.0045 17.2509 12.3133L16.8844 10.551ZM16.1649 13.3175L16.1677 11.4308L17.9676 11.4335L17.9648 13.3202L16.1649 13.3175ZM8.54026 7.54601L17.5024 12.5324L16.6273 14.1053L7.66511 9.11894L8.54026 7.54601Z" fill="#FF5252"/>
</svg>
