<svg width="31" height="33" viewBox="0 0 31 33"   fill="#A9B3BD" stroke="white" xmlns="http://www.w3.org/2000/svg">
<circle cx="15" cy="15.5" r="7.5" stroke-width="0"  />
<mask id="path-2-inside-1_201_27575" fill="white" stroke-width="0">
<path fill-rule="evenodd" clip-rule="evenodd" d="M15.6192 0.439559L15.0385 0L14.442 0.417826C12.0388 2.10106 10.1022 3.16543 8.06901 3.87993C6.03228 4.59565 3.84872 4.97797 0.926082 5.24092L0.926093 5.24104C0.425116 5.28665 0.0281119 5.70298 0.0181904 6.21762C-0.111183 12.9283 0.425707 17.9658 2.40382 22.0889C4.3983 26.2462 7.79178 29.3426 13.082 32.3219C14.2881 33.0012 15.7703 32.9746 16.9529 32.2679C22.2058 29.1288 25.7113 26.0533 27.7707 21.9577C29.8233 17.8757 30.3673 12.9216 30.0167 6.18491C29.99 5.67312 29.5831 5.2713 29.0839 5.23897C25.8961 4.94868 23.5914 4.53721 21.5662 3.81709C19.5469 3.09905 17.7546 2.05588 15.6192 0.439559ZM28.0595 7.14909C25.2062 6.85517 22.9509 6.43213 20.8962 5.70151C18.8256 4.96525 17.0015 3.93208 14.994 2.46696C12.7556 3.98886 10.8114 5.03611 8.73208 5.76682C6.70443 6.47935 4.58829 6.87666 2.00465 7.14581C1.94212 13.3119 2.51916 17.7057 4.20703 21.2238C5.95861 24.8747 8.97114 27.7114 14.0634 30.5793C14.6385 30.9032 15.3548 30.893 15.927 30.5511C21.041 27.495 24.1722 24.6622 25.9839 21.0592C27.7225 17.6016 28.3122 13.3047 28.0595 7.14909Z" stroke-width="0"/>
</mask>
<path fill-rule="evenodd" clip-rule="evenodd" d="M15.6192 0.439559L15.0385 0L14.442 0.417826C12.0388 2.10106 10.1022 3.16543 8.06901 3.87993C6.03228 4.59565 3.84872 4.97797 0.926082 5.24092L0.926093 5.24104C0.425116 5.28665 0.0281119 5.70298 0.0181904 6.21762C-0.111183 12.9283 0.425707 17.9658 2.40382 22.0889C4.3983 26.2462 7.79178 29.3426 13.082 32.3219C14.2881 33.0012 15.7703 32.9746 16.9529 32.2679C22.2058 29.1288 25.7113 26.0533 27.7707 21.9577C29.8233 17.8757 30.3673 12.9216 30.0167 6.18491C29.99 5.67312 29.5831 5.2713 29.0839 5.23897C25.8961 4.94868 23.5914 4.53721 21.5662 3.81709C19.5469 3.09905 17.7546 2.05588 15.6192 0.439559ZM28.0595 7.14909C25.2062 6.85517 22.9509 6.43213 20.8962 5.70151C18.8256 4.96525 17.0015 3.93208 14.994 2.46696C12.7556 3.98886 10.8114 5.03611 8.73208 5.76682C6.70443 6.47935 4.58829 6.87666 2.00465 7.14581C1.94212 13.3119 2.51916 17.7057 4.20703 21.2238C5.95861 24.8747 8.97114 27.7114 14.0634 30.5793C14.6385 30.9032 15.3548 30.893 15.927 30.5511C21.041 27.495 24.1722 24.6622 25.9839 21.0592C27.7225 17.6016 28.3122 13.3047 28.0595 7.14909Z" stroke-width="0"  />
<path d="M15.0385 0L17.4527 -3.18934L15.1299 -4.94758L12.7437 -3.27627L15.0385 0ZM15.6192 0.439559L13.2051 3.6289L15.6192 0.439559ZM14.442 0.417826L16.7368 3.6941V3.6941L14.442 0.417826ZM8.069 3.87993L9.39514 7.6537V7.6537L8.069 3.87993ZM0.926077 5.24092L0.567653 1.25701L-3.41716 1.61551L-3.05775 5.60024L0.926077 5.24092ZM0.926088 5.24104L1.28879 9.22456L5.26894 8.86217L4.90992 4.88171L0.926088 5.24104ZM0.0181858 6.21762L-3.98107 6.14052L0.0181858 6.21762ZM2.40381 22.0889L-1.20261 23.8192L-1.20261 23.8192L2.40381 22.0889ZM13.082 32.3219L11.1191 35.8072L11.1191 35.8072L13.082 32.3219ZM16.9529 32.2679L14.901 28.8343L14.901 28.8343L16.9529 32.2679ZM27.7707 21.9577L31.3443 23.7547L27.7707 21.9577ZM30.0166 6.18491L26.0221 6.39283V6.39284L30.0166 6.18491ZM29.0839 5.23897L28.7211 9.22249L28.7732 9.22723L28.8254 9.23061L29.0839 5.23897ZM21.5662 3.81709L22.9063 0.0482603L21.5662 3.81709ZM28.0595 7.14909L32.0561 6.98504L31.9141 3.52499L28.4694 3.17015L28.0595 7.14909ZM20.8961 5.70151L19.556 9.47034L20.8961 5.70151ZM14.994 2.46696L17.3522 -0.764014L15.0757 -2.42551L12.745 -0.840903L14.994 2.46696ZM8.73207 5.76682L7.40594 1.99304L7.40594 1.99304L8.73207 5.76682ZM2.00465 7.14581L1.59019 3.16734L-1.95896 3.53708L-1.99515 7.10525L2.00465 7.14581ZM4.20703 21.2238L7.81345 19.4936L4.20703 21.2238ZM14.0634 30.5793L16.0263 27.094L16.0263 27.094L14.0634 30.5793ZM15.927 30.5511L13.8751 27.1175L13.8751 27.1175L15.927 30.5511ZM25.9839 21.0592L29.5575 22.8562L29.5575 22.8562L25.9839 21.0592ZM12.6244 3.18934L13.2051 3.6289L18.0334 -2.74978L17.4527 -3.18934L12.6244 3.18934ZM16.7368 3.6941L17.3333 3.27627L12.7437 -3.27627L12.1472 -2.85845L16.7368 3.6941ZM9.39514 7.6537C11.885 6.77875 14.1516 5.5048 16.7368 3.6941L12.1472 -2.85845C9.92604 -1.30268 8.31948 -0.447879 6.74287 0.106154L9.39514 7.6537ZM1.2845 9.22483C4.36365 8.9478 6.9157 8.525 9.39514 7.6537L6.74287 0.106154C5.14885 0.666304 3.33378 1.00814 0.567653 1.25701L1.2845 9.22483ZM4.90992 4.88171L4.9099 4.88159L-3.05775 5.60024L-3.05774 5.60036L4.90992 4.88171ZM4.01744 6.29472C3.98763 7.84132 2.79597 9.08733 1.28879 9.22456L0.563386 1.25752C-1.94575 1.48597 -3.93141 3.56464 -3.98107 6.14052L4.01744 6.29472ZM6.01024 20.3587C4.45233 17.1115 3.89093 12.8572 4.01744 6.29472L-3.98107 6.14052C-4.1133 12.9995 -3.60093 18.8202 -1.20261 23.8192L6.01024 20.3587ZM15.0449 28.8367C10.1503 26.0801 7.51884 23.5032 6.01024 20.3587L-1.20261 23.8192C1.27774 28.9891 5.43328 32.605 11.1191 35.8072L15.0449 28.8367ZM14.901 28.8343C14.9237 28.8207 14.9464 28.8154 14.9661 28.8151C14.9865 28.8148 15.0151 28.8199 15.0448 28.8366L11.1191 35.8072C13.5875 37.1974 16.6017 37.1376 19.0048 35.7015L14.901 28.8343ZM24.1971 20.1608C22.633 23.2712 19.8762 25.8612 14.901 28.8343L19.0048 35.7015C24.5354 32.3965 28.7896 28.8353 31.3443 23.7547L24.1971 20.1608ZM26.0221 6.39284C26.3605 12.8944 25.7815 17.0097 24.197 20.1608L31.3443 23.7547C33.865 18.7417 34.3741 12.9489 34.0112 5.97698L26.0221 6.39284ZM28.8254 9.23061C27.3236 9.13336 26.1021 7.93105 26.0221 6.39283L34.0112 5.977C33.8779 3.4152 31.8425 1.40923 29.3424 1.24733L28.8254 9.23061ZM20.2261 7.58592C22.7071 8.46813 25.3908 8.91922 28.7211 9.22249L29.4466 1.25545C26.4013 0.978144 24.4757 0.606289 22.9063 0.0482604L20.2261 7.58592ZM13.2051 3.6289C15.5544 5.40722 17.7078 6.69048 20.2261 7.58592L22.9063 0.0482603C21.3859 -0.492379 19.9547 -1.29545 18.0334 -2.74978L13.2051 3.6289ZM28.4694 3.17015C25.7789 2.893 23.8727 2.51457 22.2363 1.93268L19.556 9.47034C22.029 10.3497 24.6335 10.8173 27.6496 11.128L28.4694 3.17015ZM22.2363 1.93268C20.6176 1.35711 19.1341 0.536542 17.3522 -0.764014L12.6359 5.69794C14.8688 7.32762 17.0335 8.57339 19.556 9.47034L22.2363 1.93268ZM12.745 -0.840903C10.6989 0.550273 9.0667 1.40944 7.40594 1.99304L10.0582 9.54059C12.5562 8.66278 14.8124 7.42744 17.243 5.77483L12.745 -0.840903ZM7.40594 1.99304C5.7768 2.56553 3.99555 2.91676 1.59019 3.16734L2.41911 11.1243C5.18102 10.8366 7.63204 10.3932 10.0582 9.54059L7.40594 1.99304ZM-1.99515 7.10525C-2.05948 13.4487 -1.49178 18.5928 0.600599 22.954L7.81345 19.4936C6.53008 16.8186 5.94371 13.1751 6.00444 7.18638L-1.99515 7.10525ZM0.600599 22.954C2.8379 27.6174 6.61217 30.9736 12.1006 34.0646L16.0263 27.094C11.3301 24.4492 9.07931 22.1321 7.81345 19.4936L0.600599 22.954ZM12.1006 34.0646C13.9369 35.0988 16.1852 35.0566 17.9789 33.9847L13.8751 27.1175C14.5244 26.7294 15.3401 26.7076 16.0263 27.094L12.1006 34.0646ZM17.9789 33.9847C23.3706 30.7627 27.2505 27.4443 29.5575 22.8562L22.4102 19.2623C21.0939 21.8802 18.7115 24.2273 13.8751 27.1175L17.9789 33.9847ZM29.5575 22.8562C31.7459 18.5042 32.3195 13.4028 32.0561 6.98504L24.0628 7.31314C24.3048 13.2066 23.6991 16.699 22.4102 19.2623L29.5575 22.8562Z" mask="url(#path-2-inside-1_201_27575)" stroke-width="0"/>
<path d="M12 16L14 18L18 14"  stroke-width="2" stroke-linecap="round"/>
</svg>
