<svg width="21" height="22" viewBox="0 0 21 22" stroke="#FF5252" fill="white" xmlns="http://www.w3.org/2000/svg">
<path d="M10.4925 5.99931C12.7441 5.99912 14.8087 5.82841 16.3336 5.54234C17.0879 5.40085 17.7609 5.22203 18.269 4.99671C18.5197 4.88558 18.7863 4.73902 19.0054 4.53818C19.2227 4.33906 19.4924 3.99051 19.4923 3.49854C19.4923 3.00657 19.2226 2.65806 19.0053 2.45899C18.7861 2.25818 18.5194 2.11167 18.2688 2.00058C17.7606 1.77535 17.0876 1.59664 16.3333 1.45528C14.8083 1.16947 12.7436 0.99912 10.4921 0.999313C8.24058 0.999506 6.17597 1.17021 4.651 1.45628C3.89673 1.59777 3.22376 1.7766 2.7156 2.00191C2.46497 2.11304 2.19834 2.2596 1.97919 2.46045C1.76192 2.65956 1.49227 3.00812 1.49232 3.50009C1.49236 3.99205 1.76206 4.34056 1.97936 4.53964C2.19856 4.74045 2.46521 4.88696 2.71586 4.99805C3.22405 5.22328 3.89705 5.40198 4.65135 5.54335C6.17637 5.82915 8.24101 5.99951 10.4925 5.99931Z"   stroke-width="2"/>
<path d="M1.99219 5C8.56421 5.93719 12.2782 6.05094 18.9922 4.99854L17.4312 17.4948C17.1812 19.4965 15.4797 20.9988 13.4624 20.999L7.52469 20.9995C5.5074 20.9997 3.80566 19.4977 3.55528 17.496L1.99219 5Z"   stroke-width="2"/>
<line x1="13.7423" y1="9.74994" x2="13.7428" y2="16.2499"  stroke-width="1.5" stroke-linecap="round"/>
<line x1="10.4923" y1="9.74994" x2="10.4928" y2="16.2499"  stroke-width="1.5" stroke-linecap="round"/>
<line x1="7.24225" y1="9.74994" x2="7.24281" y2="16.2499"  stroke-width="1.5" stroke-linecap="round"/>
</svg>
